<?xml version="1.0" standalone="no"?><!DOCTYPE svg PUBLIC "-//W3C//DTD SVG 1.1//EN" "http://www.w3.org/Graphics/SVG/1.1/DTD/svg11.dtd"><svg t="1570526733873" class="icon" viewBox="0 0 1024 1024" version="1.1" xmlns="http://www.w3.org/2000/svg" p-id="5534" xmlns:xlink="http://www.w3.org/1999/xlink" width="64" height="64"><defs><style type="text/css"></style></defs><path d="M932.571429 54.857143H91.428571c-20.228571 0-36.571429 16.342857-36.571428 36.571428v841.142858c0 20.228571 16.342857 36.571429 36.571428 36.571428h841.142858c20.228571 0 36.571429-16.342857 36.571428-36.571428V91.428571c0-20.228571-16.342857-36.571429-36.571428-36.571428z m-45.714286 832H137.142857V137.142857h749.714286v749.714286zM275.2 525.714286h57.942857c4.228571 0 7.771429-3.428571 7.771429-7.771429v-90.171428c0-22.514286 18.171429-40.685714 40.571428-40.685715h235.085715v61.028572c0 6.514286 7.428571 10.057143 12.457142 6.057143l124.685715-97.942858c4-3.085714 4-9.142857 0-12.228571l-124.685715-97.942857c-5.028571-4-12.457143-0.342857-12.457142 6.057143V313.142857H381.371429c-62.971429 0-113.942857 51.2-113.942858 114.4V517.714286c0 4.571429 3.428571 8 7.771429 8z m-4.8 154.171428l124.685714 97.942857c5.028571 4 12.457143 0.342857 12.457143-6.057142v-61.028572h235.085714c62.971429 0 113.942857-51.2 113.942858-114.4v-90.171428c0-4.228571-3.428571-7.771429-7.771429-7.771429h-57.942857c-4.228571 0-7.771429 3.428571-7.771429 7.771429v90.171428c0 22.514286-18.171429 40.685714-40.571428 40.685714H407.542857V576c0-6.514286-7.428571-10.057143-12.457143-6.057143l-124.685714 97.942857c-4 2.857143-4 8.914286 0 12z" p-id="5535"></path></svg>