<?xml version="1.0" standalone="no"?><!DOCTYPE svg PUBLIC "-//W3C//DTD SVG 1.1//EN" "http://www.w3.org/Graphics/SVG/1.1/DTD/svg11.dtd"><svg t="1570525713531" class="icon" viewBox="0 0 1024 1024" version="1.1" xmlns="http://www.w3.org/2000/svg" p-id="1806" xmlns:xlink="http://www.w3.org/1999/xlink" width="64" height="64"><defs><style type="text/css"></style></defs><path d="M582.857143 687.314286a9.177143 9.177143 0 0 0-12.914286 0L437.142857 820.114286c-61.485714 61.485714-165.257143 68-233.142857 0-68-68-61.485714-171.657143 0-233.142857l132.8-132.8c3.542857-3.542857 3.542857-9.371429 0-12.914286l-45.485714-45.485714a9.177143 9.177143 0 0 0-12.914286 0L145.6 528.571429c-96.685714 96.685714-96.685714 253.142857 0 349.714285s253.142857 96.685714 349.714286 0l132.8-132.8c3.542857-3.542857 3.542857-9.371429 0-12.914285L582.857143 687.314286z m295.542857-541.714286c-96.685714-96.685714-253.142857-96.685714-349.714286 0L395.771429 278.4a9.177143 9.177143 0 0 0 0 12.914286l45.371428 45.371428c3.542857 3.542857 9.371429 3.542857 12.914286 0l132.8-132.8c61.485714-61.485714 165.257143-68 233.142857 0 68 68 61.485714 171.657143 0 233.142857L687.2 569.828571a9.177143 9.177143 0 0 0 0 12.914286l45.485714 45.485714c3.542857 3.542857 9.371429 3.542857 12.914286 0l132.8-132.8c96.571429-96.685714 96.571429-253.142857 0-349.828571zM624.114286 352.342857a9.177143 9.177143 0 0 0-12.914286 0L352.342857 611.085714a9.177143 9.177143 0 0 0 0 12.914286l45.257143 45.257143c3.542857 3.542857 9.371429 3.542857 12.914286 0l258.742857-258.742857c3.542857-3.542857 3.542857-9.371429 0-12.914286l-45.142857-45.257143z" p-id="1807"></path></svg>