<?xml version="1.0" standalone="no"?><!DOCTYPE svg PUBLIC "-//W3C//DTD SVG 1.1//EN" "http://www.w3.org/Graphics/SVG/1.1/DTD/svg11.dtd"><svg t="1569831592616" class="icon" viewBox="0 0 1024 1024" version="1.1" xmlns="http://www.w3.org/2000/svg" p-id="1706" xmlns:xlink="http://www.w3.org/1999/xlink" width="128" height="128"><defs><style type="text/css"></style></defs><path d="M709.5095532657778 560.8225857232593l8.876834209185184-24.41129225481481c13.315251313777777-35.50733562311111 19.97287636385185-75.45308835081481 19.97287636385185-115.3988410785185 0-188.63271905659258-153.1253846471111-341.7581037037037-341.7581037037037-341.7581037037037-31.06891851851852 0-62.13783703703704 4.438417104592592-90.98754761007407 13.315251313777777-6.657625050074073 2.2192079454814815-13.315251313777777 8.876834209185184-15.53445925925926 15.53445925925926-2.2192079454814815 6.657625050074073 0 15.53445925925926 6.657625050074073 22.19208430933333l195.2903453202963 195.2903453202963-190.8519282157037 190.8519282157037-195.29034410666665-195.2903453202963c-6.657625050074073-6.657625050074073-13.315251313777777-8.876834209185184-22.19208552296296-6.657625050074073-6.657625050074073 2.2192079454814815-13.315251313777777 8.876834209185184-15.53445925925926 15.53445925925926-8.876834209185184 28.849710573037036-13.315251313777777 59.91862909155555-13.315250100148146 90.98754639644444 0 188.63271905659258 153.1253846471111 341.7581037037037 341.7581037037037 341.7581037037037 39.9457527277037 0 77.6722962962963-6.657625050074073 115.39883986488888-19.972875150222222l26.630501413925924-8.876834209185184 201.94797037037037 168.65984269274074c22.19208430933333 22.19208430933333 53.26100282785185 35.50733562311111 86.54913050548149 35.50733562311111s62.13783703703704-13.315251313777777 86.54913050548149-35.50733562311111c46.60337777777777-46.60337777777777 46.60337777777777-124.27567407407408-2.219209159111111-173.09825979733333l-201.94797037037037-168.65984390637036z m168.65984390637036 308.46997723970367c-28.849710573037036 28.849710573037036-77.6722962962963 31.06891851851852-110.96042397392593-2.2192079454814815l-204.16717831585183-168.65984390637036c-6.657625050074073-6.657625050074073-15.53445925925926-11.096042154666666-26.630501413925924-11.096042154666666-4.438417104592592 0-8.876834209185184 0-13.315251313777777 2.2192079454814815l-28.84970935940741 11.096042154666666c-31.06891851851852 11.096042154666666-64.35704498251852 17.75366720474074-99.86438181925925 17.753668418370367-164.2214268017778 0-297.3739338714074-133.15250828325927-297.3739338714074-297.3739350850371 0-13.315251313777777 0-26.630501413925924 2.2192079454814815-39.945751514074075l170.87905185185184 170.87905185185184c13.315251313777777 13.315251313777777 39.9457527277037 13.315251313777777 53.26100404148148 0l199.72876121125924-199.72876242488888c6.657625050074073-6.657625050074073 11.096042154666666-17.75366720474074 11.096042154666666-26.630501413925924 0-8.876834209185184-4.438417104592592-19.97287636385185-11.096042154666666-26.630501413925924L356.65540740740744 128.07693562311113c13.315251313777777-2.2192079454814815 26.630501413925924-2.2192079454814815 39.9457527277037-2.219209159111111 164.2214268017778 0 297.3739338714074 133.15250828325927 297.3739338714074 297.3739350850371 0 33.288126464-6.657625050074073 66.57625414162963-17.75366720474074 99.86438060562962l-11.096042154666666 28.849710573037036c-4.438417104592592 13.315251313777777-2.2192079454814815 28.849710573037036 11.096042154666666 39.945751514074075l204.16717831585183 168.65984390637036c28.849710573037036 28.849710573037036 28.849710573037036 77.6722962962963-2.2192079454814815 108.74121481481481z" fill="" p-id="1707"></path></svg>