<?xml version="1.0" standalone="no"?><!DOCTYPE svg PUBLIC "-//W3C//DTD SVG 1.1//EN" "http://www.w3.org/Graphics/SVG/1.1/DTD/svg11.dtd"><svg t="1569831629417" class="icon" viewBox="0 0 1024 1024" version="1.1" xmlns="http://www.w3.org/2000/svg" p-id="1839" xmlns:xlink="http://www.w3.org/1999/xlink" width="128" height="128"><defs><style type="text/css"></style></defs><path d="M128.5207776976593 990.1654512779062c14.202934734696296 0 23.67155659662222-9.468623156464195 23.67155659662222-23.67155789116049 0-213.0440132532148 172.80236548551107-385.8463787387259 385.8463787387259-385.8463787387259 106.52200597933826 0 208.3097016749827 42.60880290955061 281.69152790123456 120.72494071403455 9.468623156464195 9.468623156464195 23.67155659662222 9.468623156464195 33.14017975308642 0 9.468623156464195-9.468623156464195 9.468623156464195-23.67155659662222 0-33.14017975308642-54.44458120786173-56.81173634970864-123.09209585588148-99.42053925925924-196.47392337667162-118.35778427764939 87.58476096094816-44.97595805139753 149.1308088888889-137.29503059057777 149.1308088888889-243.81703656991604 0-151.49796403073577-123.09209585588148-274.59006118115553-274.59006118115553-274.59006118115553s-274.59006118115553 123.09209585588148-274.59005988661727 274.59006118115553c0 108.88916241572346 61.54604792794074 201.2082336603654 153.865120467121 246.18419171176296-177.5366770637432 54.44458120786173-307.730240934242 220.1454799732938-307.730240934242 414.25224691358017 2.3671551418469137 11.83577829831111 11.83577829831111 23.67155659662222 26.038713033007408 23.67155789116049z m177.5366770637432-684.1079965165036c0-125.45925229226665 101.78769440110615-227.24694669337282 227.24694669337282-227.24694669337282s227.24694669337282 101.78769440110615 227.24694669337282 227.24694669337282-101.78769440110615 227.24694669337282-227.24694669337282 227.24694669337282-227.24694669337282-101.78769440110615-227.24694669337282-227.24694669337282zM822.0973960760891 874.1748221421037l-82.85044938271605-82.85044938271605c-9.468623156464195-9.468623156464195-23.67155659662222-9.468623156464195-33.14017975308642 0s-9.468623156464195 23.67155659662222 0 33.14017975308642l99.42053925925924 99.42053925925924c4.734311578232098 4.734311578232098 11.83577829831111 7.101466720079011 16.57008987654321 7.101466720079011s11.83577829831111-2.3671551418469137 16.57008987654321-7.101466720079011l187.00530022020743-187.00530022020743c9.468623156464195-9.468623156464195 9.468623156464195-23.67155659662222 0-33.14017975308642s-23.67155659662222-9.468623156464195-33.14017975308642 0l-170.43521034366415 170.43521034366415z" fill="" p-id="1840"></path></svg>