<?xml version="1.0" standalone="no"?><!DOCTYPE svg PUBLIC "-//W3C//DTD SVG 1.1//EN" "http://www.w3.org/Graphics/SVG/1.1/DTD/svg11.dtd"><svg t="1570527585685" class="icon" viewBox="0 0 1024 1024" version="1.1" xmlns="http://www.w3.org/2000/svg" p-id="5800" xmlns:xlink="http://www.w3.org/1999/xlink" width="64" height="64"><defs><style type="text/css"></style></defs><path d="M256 408a54.857143 54.857143 0 1 0 109.714286 0 54.857143 54.857143 0 1 0-109.714286 0z m402.285714 0a54.857143 54.857143 0 1 0 109.714286 0 54.857143 54.857143 0 1 0-109.714286 0zM512 0C229.257143 0 0 229.257143 0 512s229.257143 512 512 512 512-229.257143 512-512S794.742857 0 512 0z m300.571429 812.571429c-39.085714 39.085714-84.571429 69.714286-135.2 91.2C625.142857 925.942857 569.485714 937.142857 512 937.142857c-57.485714 0-113.142857-11.2-165.485714-33.371428A423.314286 423.314286 0 0 1 211.314286 812.571429c-39.085714-39.085714-69.714286-84.571429-91.2-135.2C98.057143 625.142857 86.857143 569.485714 86.857143 512s11.2-113.142857 33.371428-165.485714A423.314286 423.314286 0 0 1 211.428571 211.314286c39.085714-39.085714 84.571429-69.714286 135.2-91.2C398.857143 98.057143 454.514286 86.857143 512 86.857143c57.485714 0 113.142857 11.2 165.485714 33.371428A423.314286 423.314286 0 0 1 812.685714 211.428571c39.085714 39.085714 69.714286 84.571429 91.2 135.2C925.942857 398.857143 937.142857 454.514286 937.142857 512s-11.2 113.142857-33.371428 165.485714A421.588571 421.588571 0 0 1 812.571429 812.571429zM685.714286 536h-54.971429c-4.8 0-8.914286 3.657143-9.257143 8.457143C617.142857 601.028571 569.714286 645.714286 512 645.714286s-105.257143-44.685714-109.485714-101.257143c-0.342857-4.8-4.457143-8.457143-9.257143-8.457143H338.285714a9.142857 9.142857 0 0 0-9.142857 9.6c5.028571 96.342857 85.142857 173.257143 182.857143 173.257143s177.828571-76.914286 182.857143-173.257143a9.142857 9.142857 0 0 0-9.142857-9.6z" p-id="5801"></path></svg>